<svg width="546" height="546" fill="none" xmlns="http://www.w3.org/2000/svg">
    <style>
        @media (prefers-color-scheme: dark) {
        .icon-oliv { fill: #f0f0f0 }
        }
    </style>
    <path  class="icon-oliv" d="M414.452 44.115c-21.3 7.7-59.5 39.1-110.9 91.2-34.7 35.2-60.3 63.9-88.4 98.9-22.3 27.7-27 35.9-31.2 54.8-1.8 8.1-2.2 12.8-2.2 29.2 0 10.7.6 24 1.2 29.5.7 5.5 2.1 17.4 3.2 26.5 1.1 9.1 2.4 20.1 2.9 24.5 1 8.2 3 35.4 5.1 66.5.6 9.6 1.3 17.7 1.5 17.9.7.8 13.9-11.8 23.9-22.9 26.2-29 47-60.2 65.6-98.4 7.5-15.4 20.9-47.5 20.9-50 0-.7.7-2.1 1.6-3.2 6.2-7.7-11.4 57.1-23.9 87.6-16.5 40.4-40.1 80.5-60.6 103.3-1.8 2.1-3.2 4-2.9 4.2.5.5 14.2-8.5 35.1-23.3 26.3-18.4 38.9-26.2 54.7-33.9 33.9-16.4 38.6-18.8 48.3-25.3 13.4-8.9 24.1-18.3 31.8-27.8 23-28.5 30.7-51.7 37.9-113.7 5.5-46.8 8.6-120.7 7.6-176.5-.7-36.4-1.5-49.4-3.7-55.4-2.1-5.8-8.1-7.1-17.5-3.7z" fill="#000"/><path class="icon-oliv" d="M142.952 202.615c-1.8.9-3.2 3.5-5.7 11.1-7.3 21.9-17.6 66.9-22.6 98.5-4 25.6-4.8 35.5-4.4 53.5.5 19.3 1.3 22.3 9.9 39.7 8.7 17.4 22.7 36.6 46.9 64.3 5.8 6.7 12.2 14.1 14.3 16.5 2 2.5 3.5 3.8 3.3 3-.3-.8-1.2-12.1-2.1-25-3.4-52-4.4-63-10.1-108.5-2.4-19.3-2.5-56-.2-66.5 3.4-15.1 8.3-28.1 13.1-34.5 1.3-1.7 1.1-2.3-2.2-7-2.1-2.7-8.3-11.8-13.8-20-15.4-23-20.6-28-26.4-25.1z" fill="#000"/></svg>